<svg width="21" height="18" viewBox="0 0 21 18" fill="none" xmlns="http://www.w3.org/2000/svg">
<path d="M19.4386 3.25787C18.6848 1.73352 16.5132 0.486321 13.9872 1.21247C12.7801 1.55599 11.727 2.29269 10.9999 3.30221C10.2727 2.29269 9.21961 1.55599 8.01256 1.21247C5.48094 0.497407 3.315 1.73352 2.56113 3.25787C1.50348 5.39195 1.94229 7.79211 3.86633 10.3918C5.37405 12.4261 7.52874 14.4882 10.6567 16.8828C10.7556 16.9587 10.8773 17 11.0027 17C11.1281 17 11.2498 16.9587 11.3487 16.8828C14.471 14.4937 16.6313 12.4483 18.1391 10.3918C20.0575 7.79211 20.4963 5.39195 19.4386 3.25787V3.25787Z" stroke="#21211F" stroke-width="2"/>
</svg>
