<svg width="21" height="18" viewBox="0 0 21 18" fill="none" xmlns="http://www.w3.org/2000/svg">
<path d="M18.4386 3.25787C17.6848 1.73352 15.5132 0.486321 12.9872 1.21247C11.7801 1.55599 10.727 2.29269 9.99988 3.30221C9.27273 2.29269 8.21961 1.55599 7.01256 1.21247C4.48094 0.497407 2.315 1.73352 1.56113 3.25787C0.503479 5.39195 0.942294 7.79211 2.86633 10.3918C4.37405 12.4261 6.52874 14.4882 9.6567 16.8828C9.75555 16.9587 9.87732 17 10.0027 17C10.1281 17 10.2498 16.9587 10.3487 16.8828C13.471 14.4937 15.6313 12.4483 17.1391 10.3918C19.0575 7.79211 19.4963 5.39195 18.4386 3.25787V3.25787Z" stroke="#21211F" stroke-width="2"/>
</svg>
