<svg width="18" height="21" viewBox="0 0 18 21" fill="none" xmlns="http://www.w3.org/2000/svg">
<path d="M11.5 0.00897818C12.0829 0.00890873 12.6552 0.165627 13.1567 0.462711C13.6583 0.759796 14.0707 1.18631 14.3507 1.69756C14.6308 2.20881 14.7682 2.78597 14.7485 3.36858C14.7289 3.95118 14.5529 4.51777 14.239 5.00898H16.75C17.44 5.00898 18 5.56898 18 6.25898V9.75898C18.0001 10.0471 17.9006 10.3265 17.7183 10.5497C17.5361 10.7729 17.2823 10.9263 17 10.984V16.759C17.0001 17.5891 16.6824 18.3878 16.1123 18.9912C15.5422 19.5946 14.7628 19.957 13.934 20.004L13.75 20.009H4.25C3.41986 20.009 2.62117 19.6914 2.01777 19.1213C1.41437 18.5512 1.052 17.7718 1.005 16.943L1 16.759V10.984C0.43 10.868 0 10.364 0 9.75898V6.25898C0 5.56898 0.56 5.00898 1.25 5.00898H3.761C3.31242 4.31203 3.14707 3.47004 3.29875 2.65521C3.45044 1.84038 3.90771 1.11429 4.57704 0.625457C5.24636 0.13662 6.07716 -0.0780244 6.8995 0.0254243C7.72185 0.128873 8.4736 0.542598 9.001 1.18198C9.30545 0.814485 9.68732 0.518783 10.1193 0.316008C10.5513 0.113233 11.0228 0.00839185 11.5 0.00897818ZM8.25 11.008H2.5V16.759C2.50002 17.1982 2.66517 17.6213 2.96268 17.9444C3.26019 18.2674 3.6683 18.4668 4.106 18.503L4.25 18.509H8.25V11.008ZM15.5 11.008H9.75V18.509H13.75C14.1893 18.5089 14.6126 18.3436 14.9357 18.0459C15.2588 17.7482 15.4581 17.3399 15.494 16.902L15.5 16.759V11.008ZM8.25 6.50898H1.5V9.50898L8.25 9.50798V6.50898ZM16.5 9.50898V6.50898H9.75V9.50798L16.5 9.50898ZM11.5 1.50898C11.0359 1.50898 10.5908 1.69335 10.2626 2.02154C9.93437 2.34973 9.75 2.79485 9.75 3.25898V5.00798H11.524L11.644 5.00298C12.094 4.96562 12.5121 4.75579 12.811 4.41735C13.1098 4.07891 13.2663 3.63805 13.2477 3.18692C13.2291 2.73578 13.0369 2.30929 12.7112 1.99659C12.3855 1.68389 11.9515 1.50918 11.5 1.50898ZM6.5 1.50898C6.04848 1.50918 5.61452 1.68389 5.28881 1.99659C4.96311 2.30929 4.77086 2.73578 4.75227 3.18692C4.73368 3.63805 4.89017 4.07891 5.18904 4.41735C5.48792 4.75579 5.90603 4.96562 6.356 5.00298L6.476 5.00798H8.25V3.25898L8.244 3.11498C8.20786 2.67728 8.00846 2.26917 7.68539 1.97166C7.36232 1.67415 6.93919 1.50899 6.5 1.50898Z" fill="black"/>
</svg>
