<svg width="26" height="22" viewBox="0 0 26 22" fill="none" xmlns="http://www.w3.org/2000/svg">
<path d="M23.4777 3.82233C22.5492 1.91689 19.8747 0.357901 16.7636 1.26558C15.277 1.69499 13.98 2.61587 13.0844 3.87776C12.1888 2.61587 10.8918 1.69499 9.40517 1.26558C6.28718 0.371759 3.61957 1.91689 2.6911 3.82233C1.38848 6.48994 1.92893 9.49014 4.2986 12.7398C6.15553 15.2827 8.80929 17.8602 12.6617 20.8535C12.7835 20.9484 12.9335 21 13.0879 21C13.2423 21 13.3922 20.9484 13.514 20.8535C17.3595 17.8671 20.0202 15.3104 21.8771 12.7398C24.2399 9.49014 24.7803 6.48994 23.4777 3.82233V3.82233Z" stroke="#027063" stroke-width="2"/>
</svg>
