<svg width="17" height="18" viewBox="0 0 17 18" fill="none" xmlns="http://www.w3.org/2000/svg">
<path d="M16.3331 14.685C15.9066 13.6749 15.2878 12.7574 14.511 11.9836C13.7366 11.2075 12.8192 10.5888 11.8096 10.1615C11.8005 10.157 11.7915 10.1547 11.7824 10.1502C13.1908 9.13292 14.1063 7.47588 14.1063 5.60635C14.1063 2.50929 11.5971 0 8.5 0C5.40295 0 2.89365 2.50929 2.89365 5.60635C2.89365 7.47588 3.80921 9.13292 5.21758 10.1525C5.20853 10.157 5.19949 10.1592 5.19045 10.1638C4.17769 10.591 3.26892 11.2036 2.489 11.9858C1.71295 12.7602 1.09421 13.6776 0.66694 14.6873C0.247193 15.6757 0.0208134 16.7355 5.65291e-05 17.8092C-0.000546843 17.8333 0.00368511 17.8573 0.0125031 17.8798C0.0213212 17.9023 0.0345468 17.9227 0.0514007 17.94C0.0682546 17.9573 0.0883959 17.971 0.110638 17.9804C0.132879 17.9897 0.156772 17.9946 0.180906 17.9946H1.53728C1.63675 17.9946 1.71587 17.9154 1.71813 17.8182C1.76334 16.073 2.46414 14.4386 3.70296 13.1998C4.98473 11.918 6.68698 11.2127 8.5 11.2127C10.313 11.2127 12.0153 11.918 13.297 13.1998C14.5359 14.4386 15.2367 16.073 15.2819 17.8182C15.2841 17.9177 15.3633 17.9946 15.4627 17.9946H16.8191C16.8432 17.9946 16.8671 17.9897 16.8894 17.9804C16.9116 17.971 16.9317 17.9573 16.9486 17.94C16.9655 17.9227 16.9787 17.9023 16.9875 17.8798C16.9963 17.8573 17.0005 17.8333 16.9999 17.8092C16.9773 16.7286 16.7535 15.6774 16.3331 14.685ZM8.5 9.49462C7.46237 9.49462 6.48578 9.08997 5.75108 8.35526C5.01638 7.62056 4.61173 6.64397 4.61173 5.60635C4.61173 4.56872 5.01638 3.59213 5.75108 2.85743C6.48578 2.12273 7.46237 1.71807 8.5 1.71807C9.53763 1.71807 10.5142 2.12273 11.2489 2.85743C11.9836 3.59213 12.3883 4.56872 12.3883 5.60635C12.3883 6.64397 11.9836 7.62056 11.2489 8.35526C10.5142 9.08997 9.53763 9.49462 8.5 9.49462Z" fill="black"/>
</svg>
