<svg width="76" height="61" viewBox="0 0 76 61" fill="none" xmlns="http://www.w3.org/2000/svg">
<g clip-path="url(#clip0)">
<path d="M45.6927 33.3885C43.0834 31.1576 49.2901 20.078 52.5665 16.6151C55.843 13.1523 57.819 11.912 57.819 11.912L58.6296 13.5435L59.4403 10.1972C59.4403 10.1972 65.7483 4.61992 69.0247 5.13603C72.3012 5.65213 74.2012 8.40745 74.2012 8.40745C74.2012 8.40745 75.9407 12.1117 74.9696 13.71C73.9985 15.2999 70.8065 17.0563 70.5616 17.2561C70.3167 17.4559 71.4483 18.5713 71.4483 18.5713L65.8327 25.4222L61.467 26.496L62.151 27.3701L61.5007 28.7685C61.5007 28.7685 52.9296 33.7797 50.1852 34.6288C47.4323 35.4779 46.3007 33.9046 45.6927 33.3885Z" fill="#E7DDD4"/>
<path d="M22.3017 19.1041H34.2168C34.6306 19.1041 34.9599 18.7795 34.9599 18.3716C34.9599 17.9637 34.6306 17.639 34.2168 17.639H22.3017C21.8879 17.639 21.5586 17.9637 21.5586 18.3716C21.5586 18.7795 21.8879 19.1041 22.3017 19.1041Z" fill="black"/>
<path d="M21.5586 23.7907C21.5586 24.1986 21.8879 24.5232 22.3017 24.5232H35.703H37.5777C37.9915 24.5232 38.3208 24.1986 38.3208 23.7907C38.3208 23.3828 37.9915 23.0581 37.5777 23.0581H36.3701H22.3017C21.8879 23.0498 21.5586 23.3828 21.5586 23.7907Z" fill="black"/>
<path d="M21.5586 29.2097C21.5586 29.6176 21.8879 29.9422 22.3017 29.9422H33.2457H41.2426C41.6564 29.9422 41.9857 29.6176 41.9857 29.2097C41.9857 28.8018 41.6564 28.4772 41.2426 28.4772H33.9128H22.3017C21.8879 28.4772 21.5586 28.8018 21.5586 29.2097Z" fill="black"/>
<path d="M21.5586 34.6288C21.5586 35.0367 21.8879 35.3613 22.3017 35.3613H30.7884H36.5053C36.919 35.3613 37.2484 35.0367 37.2484 34.6288C37.2484 34.2209 36.919 33.8963 36.5053 33.8963H31.447H22.3017C21.8879 33.8879 21.5586 34.2209 21.5586 34.6288Z" fill="black"/>
<path d="M74.1253 6.33408C72.5293 4.7608 67.8596 1.91391 58.9844 9.54724C58.8493 9.66377 58.7649 9.82193 58.7396 9.98842L58.4356 11.9446L58.2244 11.5284C58.1231 11.3203 57.8698 11.2204 57.6333 11.1871C57.4053 11.1538 57.1098 11.2704 56.9409 11.4285L56.7889 11.57C55.7249 12.6189 54.644 13.7926 53.5969 15.0163V6.66705C53.5969 6.65873 53.5884 6.6504 53.5884 6.64208C53.5884 6.63375 53.5884 6.62543 53.5884 6.6171C53.3773 3.32071 50.8187 0.656952 47.576 0.132525C47.4578 0.057607 47.3227 -0.000662592 47.1707 -0.000662592H46.6556C46.6302 -0.000662592 46.5964 -0.000662592 46.5711 -0.000662592C15.7573 -0.00898683 8.892 -0.000662593 7.27911 0.0243101C7.22 0.0159859 7.16933 -0.000662592 7.11022 -0.000662592H6.87378H6.86533C6.86533 -0.000662592 6.86533 -0.000662592 6.85689 -0.000662592C6.77244 -0.000662592 6.69644 0.0243101 6.62889 0.0492828C2.888 0.332307 0 3.36233 0 7.09991C0 7.5078 0.329333 7.83244 0.743111 7.83244H12.5484V54.3732C12.7764 57.9194 15.7067 60.7663 19.2956 60.9744C19.3547 60.991 19.4138 60.9993 19.4729 60.9993H19.4813H19.4898H19.7262H19.7347H19.7431H55.3787C59.3476 60.9993 62.5818 57.8112 62.5818 53.8988C62.5818 53.4909 62.2524 53.1662 61.8387 53.1662H53.5969V34.1121C56.7129 32.7635 60.2089 30.5826 63.4093 28.1186C63.6204 27.9521 63.7302 27.6941 63.688 27.4277C63.6458 27.1696 63.4769 26.9532 63.232 26.8533L65.6978 26.1707C65.8076 26.1458 65.9004 26.0875 65.9849 26.0209C66.9982 25.1469 67.9524 24.2728 68.8138 23.4237C70.3422 21.917 71.668 20.4104 72.7404 18.937C72.884 18.7455 72.9178 18.4958 72.8418 18.271C72.7658 18.0463 72.58 17.8715 72.352 17.8049L71.8876 17.6717L74.1338 16.5562C74.2689 16.4896 74.3871 16.3814 74.4547 16.2399C76.6249 12.1943 76.5067 8.68151 74.1253 6.33408ZM1.53689 6.36738C1.89156 3.67033 4.14622 1.58094 6.96667 1.48105H6.97511C9.79556 1.52267 12.1431 3.64535 12.4978 6.35905H1.53689V6.36738ZM19.836 59.4926L19.8191 59.5343H19.8107C19.76 59.5259 19.7009 59.5176 19.6502 59.5176C19.6418 59.5176 19.6333 59.5176 19.6249 59.5176C19.608 59.5176 19.5911 59.5093 19.5742 59.5093C19.5404 59.501 19.5067 59.4926 19.4729 59.4926H19.456C16.5933 59.3595 14.2373 57.1119 14.0516 54.3233V7.09991C14.0516 7.03332 14.0262 6.97505 14.0093 6.90845C14.0431 6.81689 14.0516 6.72532 14.0516 6.62543C13.9164 4.5194 12.8187 2.67974 11.2058 1.47273C12.5907 1.47273 14.2542 1.47273 16.0951 1.47273H42.104C43.9196 1.47273 45.3213 1.47273 46.1658 1.47273C46.2333 1.47273 46.3093 1.47273 46.3684 1.47273C46.3769 1.47273 46.3938 1.48105 46.4022 1.48105C46.4107 1.48105 46.4276 1.48105 46.436 1.48105C46.4613 1.48105 46.4867 1.48938 46.512 1.48938C46.5204 1.48938 46.5289 1.48938 46.5373 1.48938C46.892 1.4977 47.2298 1.53932 47.5676 1.60591C49.7293 2.03877 51.4689 3.70362 51.9671 5.8263C52.0347 6.11765 52.0938 6.409 52.1107 6.71699V16.8309C47.0356 23.2156 43.092 30.7158 45.0258 33.9955L37.0542 41.8536C36.7671 42.1366 36.7671 42.6028 37.0542 42.8941C37.1978 43.0356 37.392 43.1105 37.5778 43.1105C37.7636 43.1105 37.9578 43.0356 38.1013 42.8941L46.056 35.0527C46.6387 35.3857 47.348 35.5438 48.1671 35.5438C49.2987 35.5438 50.6498 35.2275 52.1022 34.7031V53.1746H25.9413C25.5276 53.1746 25.1982 53.4992 25.1982 53.9071C25.1982 56.8788 22.8169 59.3095 19.836 59.4926ZM61.0449 54.6313C60.6818 57.3866 58.2751 59.5259 55.3787 59.5259H23.864C25.3924 58.3689 26.4396 56.6208 26.6422 54.6313H61.0449ZM73.2556 15.3492L69.5484 17.1889C69.2782 17.3221 69.1178 17.6051 69.1431 17.9131C69.1684 18.2211 69.3796 18.4625 69.6751 18.5541L70.908 18.9203C70.0044 20.0607 68.9489 21.2261 67.7667 22.3915C66.9644 23.1823 66.0778 23.9981 65.1404 24.8056L60.6564 26.0375C60.344 26.1208 60.1244 26.3955 60.116 26.7118C60.0991 27.0281 60.2933 27.3195 60.5973 27.436L61.4418 27.7523C55.3533 32.2225 49.552 34.7114 47.1876 33.9372L67.1333 14.2671C67.4204 13.9841 67.4204 13.5179 67.1333 13.2265C66.8462 12.9435 66.3733 12.9435 66.0778 13.2265L46.1236 32.8967C44.992 29.6919 50.2529 20.2772 57.3462 13.0934L58.1484 14.6583C58.292 14.9413 58.6129 15.0995 58.9338 15.0579C59.2547 15.0079 59.508 14.7582 59.5502 14.4419L60.1667 10.4879C65.6556 5.8263 70.3507 4.69421 73.0698 7.37461C74.936 9.21426 75.0036 11.9696 73.2556 15.3492Z" fill="black"/>
</g>
<defs>
<clipPath id="clip0">
<rect width="76" height="61" fill="white"/>
</clipPath>
</defs>
</svg>
