<svg width="23" height="20" viewBox="0 0 23 20" fill="none" xmlns="http://www.w3.org/2000/svg">
<path d="M11.5794 0.0955821C11.4629 0.0328419 11.3326 0 11.2002 0C11.0679 0 10.9376 0.0328419 10.821 0.0955821L1.26243 5.24289C0.88098 5.44823 0.562221 5.75298 0.339961 6.12482C0.117701 6.49667 0.000227396 6.92173 0 7.35493V16.7999C0 17.6486 0.337149 18.4626 0.937278 19.0627C1.53741 19.6628 2.35136 20 3.20007 20H19.2004C20.0491 20 20.8631 19.6628 21.4632 19.0627C22.0633 18.4626 22.4005 17.6486 22.4005 16.7999V7.35493C22.4002 6.92173 22.2828 6.49667 22.0605 6.12482C21.8383 5.75298 21.5195 5.44823 21.138 5.24289L11.5794 0.0955821ZM2.02084 6.65092L11.2002 1.70682L20.3796 6.65092C20.4772 6.70367 20.5628 6.77614 20.6308 6.86372L11.2002 11.8926L1.76964 6.86372C1.83771 6.77614 1.92326 6.70367 2.02084 6.65092ZM1.60003 8.58696L10.8242 13.5039C10.94 13.5655 11.0691 13.5977 11.2002 13.5977C11.3314 13.5977 11.4605 13.5655 11.5762 13.5039L20.8004 8.58696V16.7999C20.8004 17.2243 20.6319 17.6313 20.3318 17.9313C20.0317 18.2314 19.6248 18.4 19.2004 18.4H3.20007C2.77571 18.4 2.36874 18.2314 2.06867 17.9313C1.76861 17.6313 1.60003 17.2243 1.60003 16.7999V8.58696Z" fill="black"/>
</svg>
