<svg width="51" height="64" viewBox="0 0 51 64" fill="none" xmlns="http://www.w3.org/2000/svg">
<path d="M25.5048 53.0738C25.5048 53.0738 16.1622 55.6344 10.4956 50.937C4.82889 46.2395 2.87306 44.0335 1.40619 39.4917C-0.0606855 34.9499 0.716407 30.4601 0.716407 30.4601L1.10059 29.2316C1.10059 29.2316 12.3117 28.2368 16.7647 31.8615C21.2177 35.4863 26.5788 44.4401 26.1946 47.9697C25.8017 51.4993 25.5048 53.0738 25.5048 53.0738Z" fill="#E7DDD4"/>
<path d="M25.5047 53.0738C25.5047 53.0738 23.1997 43.7481 28.1067 38.272C33.0137 32.7959 35.2926 30.9359 39.9203 29.621C44.5479 28.306 49.0533 29.2057 49.0533 29.2057L50.2844 29.621C50.2844 29.621 50.9567 40.7462 47.1673 45.0543C43.3779 49.3625 34.175 54.3974 30.6301 53.913C27.0851 53.4285 25.5047 53.0738 25.5047 53.0738Z" fill="#E7DDD4"/>
<path d="M1.94731 29.1971C1.5544 27.4842 1.3623 25.7107 1.3623 23.92C1.3623 10.7272 12.1892 0 25.5046 0C38.8199 0 49.6468 10.7272 49.6468 23.92C49.6468 25.7194 49.446 27.4928 49.0618 29.1971L47.0973 28.7213C47.4465 27.1727 47.6299 25.555 47.6299 23.92C47.6299 11.8345 37.711 2.00703 25.5133 2.00703C13.3156 2.00703 3.39672 11.8345 3.39672 23.92C3.39672 25.555 3.58008 27.1727 3.92933 28.7213L1.94731 29.1971Z" fill="black"/>
<path d="M25.5485 32.2422C25.4699 32.2422 25.3913 32.2335 25.3215 32.2162L20.2922 30.9705C19.8731 30.8667 19.585 30.4947 19.585 30.0708V23.0029L17.6204 21.0565H14.2414C13.9882 21.0565 13.7611 20.9613 13.5778 20.7883L9.80583 17.0511C9.6312 16.878 9.53516 16.6445 9.53516 16.3936V6.76504H11.4037V16.0216L14.6256 19.2138H18.0046C18.2578 19.2138 18.4848 19.309 18.6682 19.482L21.1828 21.9735C21.3574 22.1465 21.4535 22.3801 21.4535 22.6309V29.3614L25.0421 30.2525L25.662 29.024L23.6276 27.0083C23.453 26.8353 23.3569 26.6018 23.3569 26.3509V22.6309C23.3569 22.233 23.6101 21.8783 23.9943 21.7572L27.1289 20.7191V19.1792L24.7714 15.6756C24.6143 15.4333 24.5706 15.1392 24.6666 14.871L25.924 11.1338C26.02 10.857 26.2383 10.6407 26.5177 10.5455L29.6523 9.5074V6.69583L26.151 0.951578L28.1854 0.709351L31.3723 5.9605C31.4597 6.10757 31.5033 6.27193 31.5033 6.4363V10.1735C31.5033 10.5715 31.2501 10.9262 30.8659 11.0559L27.5393 12.1546L26.5788 15.0181L28.8402 18.3747C28.945 18.5304 28.9974 18.7034 28.9974 18.8851V21.3766C28.9974 21.7745 28.7442 22.1292 28.36 22.259L25.2342 23.2884V25.9529L27.4694 28.1676C27.7575 28.4531 27.8274 28.877 27.644 29.2317L26.3867 31.7231C26.2296 32.0519 25.9065 32.2422 25.5485 32.2422Z" fill="black"/>
<path d="M42.1723 28.9462V21.7399L38.5488 19.3695C38.2606 19.1878 38.0947 18.8678 38.0947 18.5304V13.1408C38.0947 12.8294 38.2432 12.5266 38.4964 12.3363L42.7922 9.14404L44.0059 10.7445L40.1204 13.6339V17.9854L43.7439 20.3557C44.0321 20.546 44.198 20.8575 44.198 21.1949V28.9375H42.1723V28.9462Z" fill="black"/>
<path d="M20.056 54.5618C9.00205 54.5618 0 45.6426 0 34.6904V29.3009C0 28.7472 0.454032 28.2974 1.01284 28.2974H6.45249C17.5152 28.2974 26.5085 37.2079 26.5085 48.1687V53.5582C26.5085 54.1119 26.0544 54.5618 25.4956 54.5618H20.056ZM2.02568 34.6904C2.02568 44.5439 10.1197 52.5634 20.0647 52.5634H24.4915V48.1687C24.4915 38.3152 16.3975 30.2957 6.45249 30.2957H2.02568V34.6904Z" fill="black"/>
<path d="M25.5041 54.5618C24.9452 54.5618 24.4912 54.1119 24.4912 53.5582V48.1687C24.4912 37.2079 33.4933 28.2974 44.5472 28.2974H49.9868C50.5457 28.2974 50.9997 28.7472 50.9997 29.3009V34.6904C50.9997 45.6512 41.9976 54.5618 30.9437 54.5618H25.5041ZM44.5472 30.2957C34.6022 30.2957 26.5082 38.3152 26.5082 48.1687V52.5634H30.935C40.88 52.5634 48.974 44.5439 48.974 34.6904V30.2957H44.5472Z" fill="black"/>
<path d="M26.5169 53.9043H24.4912V63.9913H26.5169V53.9043Z" fill="black"/>
<path d="M39.4825 38.271L25.0312 52.6074L26.4646 54.0258L40.9159 39.6894L39.4825 38.271Z" fill="black"/>
<path d="M11.5236 38.2609L10.0898 39.6787L24.5349 54.0192L25.9687 52.6014L11.5236 38.2609Z" fill="black"/>
</svg>
