<svg width="20" height="19" viewBox="0 0 20 19" fill="none" xmlns="http://www.w3.org/2000/svg">
<path d="M4.86465 9C4.08065 9 3.35665 8.808 2.69265 8.424C2.03665 8.04 1.51265 7.516 1.12065 6.852C0.736647 6.188 0.544647 5.464 0.544647 4.68C0.544647 3.912 0.740647 3.196 1.13265 2.532C1.53265 1.868 2.06465 1.34 2.72865 0.947999C3.39265 0.555999 4.10465 0.36 4.86465 0.36C5.64865 0.36 6.36865 0.552 7.02465 0.935999C7.68865 1.32 8.21265 1.844 8.59665 2.508C8.98865 3.172 9.18465 3.896 9.18465 4.68C9.18465 5.464 8.98865 6.188 8.59665 6.852C8.21265 7.516 7.68865 8.04 7.02465 8.424C6.36865 8.808 5.64865 9 4.86465 9ZM1.26465 16.8L17.3806 0.719999L18.5806 1.908L2.46465 18L1.26465 16.8ZM4.86465 7.404C5.34465 7.404 5.79265 7.28 6.20865 7.032C6.63265 6.784 6.96865 6.452 7.21665 6.036C7.46465 5.612 7.58865 5.16 7.58865 4.68C7.58865 4.2 7.46465 3.752 7.21665 3.336C6.96865 2.912 6.63265 2.576 6.20865 2.328C5.79265 2.08 5.34465 1.956 4.86465 1.956C4.38465 1.956 3.93265 2.08 3.50865 2.328C3.09265 2.576 2.76065 2.912 2.51265 3.336C2.26465 3.752 2.14065 4.2 2.14065 4.68C2.14065 5.16 2.26465 5.612 2.51265 6.036C2.76065 6.452 3.09265 6.784 3.50865 7.032C3.93265 7.28 4.38465 7.404 4.86465 7.404ZM14.9806 18.36C14.1966 18.36 13.4726 18.168 12.8086 17.784C12.1526 17.4 11.6286 16.876 11.2366 16.212C10.8526 15.548 10.6606 14.824 10.6606 14.04C10.6606 13.272 10.8566 12.556 11.2486 11.892C11.6486 11.228 12.1806 10.7 12.8446 10.308C13.5086 9.916 14.2206 9.72 14.9806 9.72C15.7646 9.72 16.4846 9.912 17.1406 10.296C17.8046 10.68 18.3286 11.204 18.7126 11.868C19.1046 12.532 19.3006 13.256 19.3006 14.04C19.3006 14.824 19.1046 15.548 18.7126 16.212C18.3286 16.876 17.8046 17.4 17.1406 17.784C16.4846 18.168 15.7646 18.36 14.9806 18.36ZM14.9806 16.764C15.4606 16.764 15.9086 16.64 16.3246 16.392C16.7486 16.144 17.0846 15.812 17.3326 15.396C17.5806 14.972 17.7046 14.52 17.7046 14.04C17.7046 13.56 17.5806 13.112 17.3326 12.696C17.0846 12.272 16.7486 11.936 16.3246 11.688C15.9086 11.44 15.4606 11.316 14.9806 11.316C14.4926 11.316 14.0366 11.44 13.6126 11.688C13.1966 11.936 12.8646 12.272 12.6166 12.696C12.3686 13.112 12.2446 13.56 12.2446 14.04C12.2446 14.52 12.3686 14.972 12.6166 15.396C12.8646 15.812 13.1966 16.144 13.6126 16.392C14.0366 16.64 14.4926 16.764 14.9806 16.764Z" fill="#21211F"/>
</svg>
