<svg width="16" height="16" viewBox="0 0 16 16" fill="none" xmlns="http://www.w3.org/2000/svg">
<path d="M4.12511 5.81215C4.4178 5.51949 4.74249 5.27817 5.08784 5.08751C7.01264 4.02687 9.48081 4.59086 10.7182 6.4668L9.22079 7.96342C8.79143 6.98412 7.72536 6.4268 6.66462 6.66412C6.26526 6.75346 5.8859 6.95278 5.57588 7.26277L2.70635 10.1334C1.83496 11.0047 1.83496 12.4219 2.70635 13.2933C3.57774 14.1646 4.99517 14.1646 5.86656 13.2933L6.75129 12.4086C7.55601 12.7279 8.41874 12.8553 9.27079 12.7919L7.318 14.7445C5.64388 16.4185 2.9297 16.4185 1.25558 14.7445C-0.418528 13.0706 -0.418528 10.3567 1.25558 8.68273L4.12511 5.81215ZM8.68275 1.25496L6.72996 3.20757C7.58135 3.14357 8.44474 3.27156 9.24946 3.59022L10.1335 2.70625C11.0049 1.83494 12.4223 1.83494 13.2937 2.70625C14.1651 3.57755 14.1651 4.99484 13.2937 5.86615L10.4235 8.73606C9.54948 9.61003 8.13005 9.6027 7.26333 8.73606C7.06131 8.53407 6.8873 8.28274 6.77863 8.03542L5.28119 9.53204C5.43853 9.77069 5.60188 9.97669 5.81189 10.1867C6.35326 10.728 7.04264 11.1313 7.83603 11.3226C8.8641 11.57 9.96551 11.4333 10.9116 10.9113C11.2569 10.7207 11.5816 10.4793 11.8743 10.1867L14.7438 7.31677C16.4186 5.64282 16.4186 2.92891 14.7445 1.25496C13.0704 -0.41832 10.3569 -0.41832 8.68275 1.25496Z" fill="white"/>
</svg>
