<svg width="61" height="74" viewBox="0 0 61 74" fill="none" xmlns="http://www.w3.org/2000/svg">
<g clip-path="url(#clip0)">
<path d="M53.7199 14.68C57.4755 14.68 60.5199 11.6355 60.5199 7.87996C60.5199 4.12442 57.4755 1.07996 53.7199 1.07996C49.9644 1.07996 46.9199 4.12442 46.9199 7.87996C46.9199 11.6355 49.9644 14.68 53.7199 14.68Z" fill="#E7DDD4"/>
<path d="M47.7508 71.7099C51.7272 71.7099 54.9508 68.4864 54.9508 64.5099C54.9508 60.5335 51.7272 57.3099 47.7508 57.3099C43.7743 57.3099 40.5508 60.5335 40.5508 64.5099C40.5508 68.4864 43.7743 71.7099 47.7508 71.7099Z" fill="#E7DDD4"/>
<path d="M9.02031 50.9C12.9968 50.9 16.2203 47.6765 16.2203 43.7C16.2203 39.7236 12.9968 36.5 9.02031 36.5C5.04386 36.5 1.82031 39.7236 1.82031 43.7C1.82031 47.6765 5.04386 50.9 9.02031 50.9Z" fill="#E7DDD4"/>
<path d="M19.8808 18.2099C22.2722 18.2099 24.2108 16.2713 24.2108 13.8799C24.2108 11.4885 22.2722 9.54993 19.8808 9.54993C17.4894 9.54993 15.5508 11.4885 15.5508 13.8799C15.5508 16.2713 17.4894 18.2099 19.8808 18.2099Z" fill="#E7DDD4"/>
<path d="M36.9407 49.2999C43.1153 49.2999 48.1207 44.2945 48.1207 38.1199C48.1207 31.9454 43.1153 26.9399 36.9407 26.9399C30.7662 26.9399 25.7607 31.9454 25.7607 38.1199C25.7607 44.2945 30.7662 49.2999 36.9407 49.2999Z" fill="#E7DDD4"/>
<path d="M31.2705 36.03C31.1105 36.03 30.9505 35.99 30.8105 35.91C30.5805 35.79 30.4105 35.58 30.3405 35.33C30.2605 35.08 30.2905 34.82 30.4105 34.59C31.3405 32.86 32.8905 31.6 34.7705 31.03C35.4605 30.82 36.1805 30.71 36.9005 30.71C38.1005 30.71 39.3005 31.01 40.3705 31.59C40.8405 31.85 41.0205 32.44 40.7705 32.91C40.6005 33.23 40.2705 33.42 39.9105 33.42C39.7505 33.42 39.5905 33.38 39.4505 33.3C38.6605 32.88 37.7805 32.65 36.9005 32.65C36.3705 32.65 35.8505 32.73 35.3405 32.88C33.9605 33.3 32.8205 34.22 32.1405 35.5C31.9605 35.83 31.6305 36.03 31.2705 36.03Z" fill="black"/>
<path d="M5.08012 42.49C4.92012 42.49 4.76012 42.45 4.62012 42.37C4.39012 42.25 4.22012 42.04 4.15012 41.79C4.07012 41.54 4.10012 41.28 4.22012 41.05C5.16012 39.3 6.97012 38.22 8.97012 38.22C9.85012 38.22 10.7301 38.44 11.5101 38.86C11.7401 38.98 11.9101 39.19 11.9801 39.44C12.0601 39.69 12.0301 39.95 11.9101 40.18C11.7401 40.5 11.4101 40.69 11.0501 40.69C10.8901 40.69 10.7301 40.65 10.5901 40.57C10.0901 40.3 9.53012 40.16 8.97012 40.16C7.70012 40.16 6.54012 40.85 5.94012 41.97C5.77012 42.29 5.44012 42.49 5.08012 42.49Z" fill="black"/>
<path d="M44.9302 63.89C44.7702 63.89 44.6102 63.85 44.4702 63.7701C44.2402 63.6501 44.0702 63.44 44.0002 63.19C43.9202 62.94 43.9502 62.6801 44.0802 62.4501C44.8802 60.9701 46.4202 60.05 48.1102 60.05C48.8602 60.05 49.6002 60.24 50.2602 60.59C50.4902 60.71 50.6602 60.92 50.7302 61.17C50.8102 61.42 50.7802 61.68 50.6602 61.91C50.4902 62.23 50.1602 62.42 49.8002 62.42C49.6402 62.42 49.4802 62.38 49.3402 62.3C48.9502 62.11 48.5202 62 48.1002 62C47.1302 62 46.2502 62.5301 45.7902 63.3801C45.6102 63.7001 45.2902 63.89 44.9302 63.89Z" fill="black"/>
<path d="M47.6802 73.38C46.2202 73.38 44.7602 73.01 43.4502 72.31C39.2702 70.06 37.5702 64.93 39.5802 60.62L39.6102 60.55L36.6102 50.59H36.4702C34.5102 50.53 32.6502 50.04 30.9602 49.13C29.2602 48.21 27.8202 46.94 26.6902 45.34L26.6102 45.22L16.6502 48.22L16.6102 48.29C15.4602 50.18 13.6602 51.57 11.5502 52.2C10.7002 52.46 9.83022 52.59 8.96022 52.59C7.50022 52.59 6.03022 52.22 4.73022 51.52C0.370218 49.18 -1.26978 43.73 1.07022 39.38C2.20022 37.27 4.09022 35.73 6.39022 35.04C7.24022 34.78 8.11022 34.65 8.99022 34.65C10.4502 34.65 11.9202 35.02 13.2202 35.72C14.0402 36.16 14.7802 36.72 15.4302 37.39L15.5102 37.48L24.8402 34.67L24.8702 34.57C25.1202 33.73 25.4502 32.92 25.8502 32.16C26.5902 30.79 27.5702 29.58 28.7802 28.55L28.9202 28.43L21.6502 18.08L21.5002 18.14C20.9402 18.36 20.3802 18.47 19.8202 18.47C17.2402 18.47 15.1502 16.37 15.1502 13.8C15.1502 11.23 17.2402 9.13 19.8202 9.13C22.4002 9.13 24.4902 11.23 24.4902 13.8C24.4902 14.9 24.0802 15.98 23.3302 16.84L23.2302 16.96L30.5102 27.32L30.6702 27.23C32.5802 26.14 34.7402 25.57 36.9202 25.57C38.6002 25.57 40.2302 25.9 41.7802 26.56L41.9502 26.63L48.6602 14.14L48.5202 14.04C47.1702 13.04 46.2002 11.66 45.7202 10.05C45.1202 8.06 45.3302 5.96 46.3202 4.13C47.3002 2.3 48.9402 0.96 50.9302 0.36C51.6502 0.11 52.4102 0 53.1702 0C54.4402 0 55.7102 0.32 56.8402 0.93C60.6202 2.96 62.0402 7.68 60.0102 11.46C58.6502 13.99 56.0202 15.56 53.1402 15.56C52.2602 15.56 51.3902 15.4 50.5302 15.09L50.3702 15.03L43.6602 27.52L43.8102 27.62C49.1502 31.16 50.9602 38.35 47.9302 44C47.5202 44.77 47.0202 45.5 46.4702 46.16L46.4002 46.24L49.2102 55.56L49.3302 55.58C50.2502 55.75 51.1302 56.06 51.9402 56.5C56.3002 58.84 57.9402 64.29 55.6002 68.64C54.4702 70.75 52.5802 72.29 50.2802 72.98C49.4302 73.25 48.5602 73.38 47.6802 73.38ZM47.7102 57.38C47.0202 57.38 46.3402 57.48 45.6802 57.68C43.8802 58.22 42.4102 59.43 41.5202 61.08C39.6902 64.49 40.9702 68.75 44.3802 70.59C45.4002 71.14 46.5502 71.43 47.7002 71.43C48.3802 71.43 49.0702 71.33 49.7302 71.13C51.5302 70.59 53.0002 69.38 53.8902 67.73C55.7202 64.32 54.4402 60.06 51.0302 58.23C50.0002 57.67 48.8502 57.38 47.7102 57.38ZM44.6002 47.96C42.9402 49.25 40.9502 50.11 38.8502 50.45L38.6202 50.49L41.0102 58.44L41.2502 58.19C42.3102 57.09 43.6502 56.27 45.1202 55.83C45.7002 55.66 46.3002 55.54 46.9002 55.48L47.1402 55.46L44.8302 47.79L44.6002 47.96ZM8.97022 36.58C8.28022 36.58 7.60022 36.68 6.94022 36.88C5.14022 37.42 3.67022 38.63 2.78022 40.28C0.950218 43.69 2.23022 47.95 5.64022 49.79C6.66022 50.34 7.81022 50.63 8.95022 50.63C9.63022 50.63 10.3202 50.53 10.9802 50.33C12.7702 49.79 14.2502 48.58 15.1402 46.93C16.9702 43.52 15.6902 39.26 12.2802 37.42C11.2702 36.87 10.1202 36.58 8.97022 36.58ZM36.9102 27.48C32.9902 27.48 29.4102 29.62 27.5702 33.06C25.8402 36.28 25.8902 40.12 27.7202 43.32C27.8902 43.5 27.9702 43.63 28.0202 43.77L28.0502 43.88C29.0102 45.35 30.3402 46.57 31.8902 47.4C33.4302 48.22 35.1502 48.66 36.8802 48.66H36.9202L37.0002 48.64C37.1102 48.6 37.1902 48.58 37.2702 48.58C37.3502 48.58 37.4302 48.59 37.5202 48.61C41.2502 48.37 44.4802 46.3 46.2102 43.07C48.9702 37.93 47.0402 31.49 41.8902 28.73C40.3702 27.92 38.6402 27.48 36.9102 27.48ZM16.7302 39.12L16.8502 39.34C17.8702 41.24 18.1802 43.44 17.7102 45.54L17.6402 45.87L25.6002 43.47L25.5102 43.26C24.6302 41.32 24.2502 39.19 24.4102 37.09L24.4302 36.8L16.7302 39.12ZM19.8202 11.05C18.3202 11.05 17.1002 12.27 17.1002 13.77C17.1002 15.27 18.3202 16.49 19.8202 16.49C21.3202 16.49 22.5402 15.27 22.5402 13.77C22.5502 12.27 21.3302 11.05 19.8202 11.05ZM53.1702 1.95C52.6002 1.95 52.0302 2.03 51.4802 2.2C49.9902 2.65 48.7602 3.65 48.0202 5.02C47.2802 6.39 47.1202 7.97 47.5702 9.46C48.0202 10.95 49.0202 12.18 50.3902 12.91C51.2302 13.36 52.1802 13.6 53.1402 13.6C55.3002 13.6 57.2702 12.42 58.2902 10.53C59.8102 7.7 58.7402 4.16 55.9102 2.64C55.0702 2.19 54.1202 1.95 53.1702 1.95Z" fill="black"/>
</g>
<defs>
<clipPath id="clip0">
<rect width="60.94" height="73.38" fill="white"/>
</clipPath>
</defs>
</svg>
