<svg width="92" height="48" viewBox="0 0 92 48" fill="none" xmlns="http://www.w3.org/2000/svg">
<g clip-path="url(#clip0)">
<path fill-rule="evenodd" clip-rule="evenodd" d="M79.0322 30.1476L79.0415 33.2357C79.0269 36.9897 80.2477 37.2881 86.2362 34.385C86.2362 35.1746 86.2414 35.6007 86.2414 36.3903C83.4293 37.6268 80.5376 38.6875 78.4404 38.6549C76.5908 38.6249 74.9755 37.7454 74.9662 35.3831C73.2159 37.3741 70.9399 38.896 67.8894 38.7175C64.9607 38.5468 63.6725 35.6749 65.1593 33.1471C66.3258 31.1652 68.2999 30.2505 68.6746 30.1294C65.8822 30.1294 63.9624 31.8141 62.134 33.6918C59.8342 36.0515 57.68 38.7161 54.1198 38.7161C53.663 38.7161 52.4648 38.7161 52.4648 37.0861V31.7672C52.4648 30.558 52.4648 30.1294 50.8085 30.1294H48.3418V38.7175H43.9779V30.6558V30.2414C40.5541 30.5007 36.8998 31.2148 33.3555 32.4018C31.7746 32.9321 30.3049 33.5263 28.9611 34.1687C27.608 34.815 26.3832 35.5095 25.2989 36.2352C21.1521 38.9416 18.091 42.2199 13.3604 48.0013C13.3604 34.1843 19.0655 19.1164 35.9373 19.0551C42.695 19.0304 48.3405 22.1029 48.3405 28.5019H55.0241C56.6831 28.5019 56.6884 29.7476 56.6751 30.1294L56.695 35.2449C56.7135 35.6358 57.0591 35.6815 57.3808 35.4612C59.5019 34.0175 60.6789 32.4044 62.0863 31.0962C63.695 29.6016 65.6029 28.5019 69.563 28.5019H77.3627C79.0415 28.5254 79.0269 29.7424 79.0322 30.1476ZM22.5132 45.1895V41.5645L23.4466 41.4551V44.4168H24.719L24.4767 45.1908H22.5132V45.1895ZM76.9112 43.5698L76.5828 45.2429L75.6362 45.1347L76.657 41.2896L77.842 43.6845L79.0852 41.2896L80.057 45.1347L79.1342 45.2429L78.8019 43.5698L77.8406 45.3914L76.9112 43.5698ZM73.723 41.4538V43.8356C73.723 44.3373 73.5774 44.7074 73.2848 44.9445C73.0094 45.1686 72.6347 45.2807 72.1593 45.2807C71.6748 45.2807 71.2934 45.1569 71.0154 44.9093C70.8737 44.7816 70.7731 44.637 70.7162 44.478C70.6592 44.3191 70.6301 44.1041 70.6301 43.8356V41.5658L71.5635 41.4551V43.6897C71.5635 43.8356 71.5728 43.9438 71.59 44.0155C71.6086 44.0858 71.643 44.1536 71.6946 44.2187C71.8058 44.3516 71.966 44.4194 72.1779 44.4194C72.395 44.4194 72.5513 44.3621 72.6466 44.2487C72.7406 44.1353 72.7882 43.949 72.7882 43.6897V41.5658L73.723 41.4538ZM67.5134 45.2429V41.5658L68.4468 41.4551V45.136L67.5134 45.2429ZM62.6398 45.2429V41.5111C62.9893 41.4863 63.3481 41.4733 63.7188 41.4733C64.1716 41.4733 64.5119 41.5476 64.7396 41.6974C64.8853 41.7938 65.0018 41.9254 65.0878 42.0935C65.166 42.2499 65.2044 42.418 65.2044 42.6004C65.2044 42.8154 65.154 43.0043 65.0547 43.1659C64.9541 43.3275 64.8072 43.4565 64.6138 43.5542L65.6241 44.9549L64.6906 45.2442L63.5573 43.5112L63.5772 45.1347L62.6398 45.2429ZM63.5573 42.2707V43.2767C63.6367 43.291 63.7003 43.2975 63.7493 43.2975C63.8843 43.2975 64.0022 43.2454 64.0988 43.1398C64.1968 43.0343 64.2458 42.9092 64.2458 42.7633C64.2458 42.6108 64.1968 42.4883 64.0988 42.3958C64.0022 42.3046 63.8711 42.259 63.7109 42.259C63.6765 42.259 63.6248 42.2629 63.5573 42.2707ZM58.6466 41.4186C59.2119 41.4186 59.678 41.5997 60.0474 41.9632C60.2433 42.16 60.3916 42.3919 60.4896 42.6616C60.5703 42.8792 60.6101 43.1021 60.6101 43.3327C60.6101 43.7249 60.5068 44.0819 60.2976 44.4064C60.0831 44.7386 59.7958 44.9797 59.433 45.1308C59.1921 45.2312 58.9206 45.282 58.6201 45.282C58.2308 45.282 57.876 45.183 57.5569 44.9836C57.2471 44.7934 57.0114 44.5288 56.8525 44.1927C56.7268 43.9269 56.6632 43.6454 56.6632 43.3496C56.6632 42.9965 56.7506 42.6682 56.9254 42.3606C57.1134 42.0375 57.3769 41.7899 57.7198 41.6218C57.9846 41.4902 58.2931 41.4225 58.6466 41.4186ZM58.6373 42.2838C58.3751 42.2838 58.1448 42.3815 57.9435 42.5756C57.7317 42.7815 57.6258 43.0395 57.6258 43.347C57.6258 43.6324 57.7211 43.8799 57.9104 44.0858C58.0044 44.1888 58.117 44.2695 58.2441 44.3295C58.3712 44.3894 58.5009 44.4181 58.6307 44.4181C58.8994 44.4181 59.1285 44.323 59.3205 44.1314C59.5403 43.9177 59.6488 43.6558 59.6488 43.347C59.6488 43.0525 59.5429 42.7998 59.3311 42.5887C59.1298 42.3893 58.8968 42.2877 58.6373 42.2838ZM53.1493 45.2429V42.375H52.1748L52.4158 41.5098H54.987V42.375H54.0827V45.1347L53.1493 45.2429ZM47.9407 45.3133L46.9967 45.1347L49.0317 41.2896L51.0243 45.1347L50.0882 45.3133L49.7188 44.5406H48.3074L47.9407 45.3133ZM48.6265 43.7666H49.4011L49.0091 42.9444L48.6265 43.7666ZM42.5454 45.2429V41.5111C42.8949 41.4863 43.2537 41.4733 43.6244 41.4733C44.0772 41.4733 44.4175 41.5476 44.6452 41.6974C44.7909 41.7938 44.9061 41.9254 44.9921 42.0935C45.0702 42.2499 45.11 42.418 45.11 42.6004C45.11 42.8154 45.0596 43.0043 44.9603 43.1659C44.8597 43.3275 44.7128 43.4565 44.5194 43.5542L45.5297 44.9549L44.5962 45.2442L43.4629 43.5112L43.4828 45.1347L42.5454 45.2429ZM43.4616 42.2707V43.2767C43.5423 43.291 43.6059 43.2975 43.6535 43.2975C43.7886 43.2975 43.9051 43.2454 44.0031 43.1398C44.1011 43.0343 44.1501 42.9092 44.1501 42.7633C44.1501 42.6108 44.1011 42.4883 44.0031 42.3958C43.9051 42.3046 43.7754 42.259 43.6152 42.259C43.5807 42.259 43.5291 42.2629 43.4616 42.2707ZM38.5522 41.4186C39.1175 41.4186 39.5836 41.5997 39.953 41.9632C40.1489 42.16 40.2972 42.3919 40.3952 42.6616C40.4759 42.8792 40.5157 43.1021 40.5157 43.3327C40.5157 43.7249 40.4124 44.0819 40.2045 44.4064C39.99 44.7386 39.7027 44.9797 39.3386 45.1308C39.0977 45.2312 38.8276 45.282 38.5257 45.282C38.1364 45.282 37.7829 45.183 37.4638 44.9836C37.154 44.7934 36.9183 44.5288 36.7595 44.1927C36.6337 43.9269 36.5715 43.6454 36.5715 43.3496C36.5715 42.9965 36.6588 42.6682 36.8336 42.3606C37.0203 42.0375 37.2851 41.7899 37.628 41.6218C37.8888 41.4902 38.1973 41.4225 38.5522 41.4186ZM38.5416 42.2838C38.2794 42.2838 38.049 42.3815 37.8478 42.5756C37.636 42.7815 37.5314 43.0395 37.5314 43.347C37.5314 43.6324 37.6254 43.8799 37.816 44.0858C37.91 44.1888 38.0226 44.2695 38.1497 44.3295C38.2781 44.3894 38.4065 44.4181 38.5363 44.4181C38.805 44.4181 39.0341 44.323 39.2261 44.1314C39.4459 43.9177 39.5544 43.6558 39.5544 43.347C39.5544 43.0525 39.4485 42.7998 39.2367 42.5887C39.0341 42.3893 38.8024 42.2877 38.5416 42.2838ZM32.0142 45.1895V41.5111L32.1241 41.5085L32.5094 41.4942C32.8841 41.4798 33.1185 41.472 33.2138 41.472C33.5541 41.472 33.8215 41.5124 34.0135 41.5932C34.1988 41.6701 34.3432 41.786 34.4491 41.9411C34.559 42.1 34.6133 42.272 34.6133 42.4558C34.6133 42.6721 34.5497 42.8597 34.4213 43.02C34.3564 43.1008 34.2505 43.1815 34.1062 43.2649C34.3061 43.3601 34.4438 43.4552 34.5219 43.5477C34.6569 43.7106 34.7258 43.8982 34.7258 44.108C34.7258 44.4793 34.5735 44.7673 34.2717 44.9771C34.1565 45.0553 34.0347 45.1087 33.9089 45.1413C33.7818 45.1738 33.6216 45.1895 33.4256 45.1895H32.0142ZM32.9477 42.2303V42.9665H33.1396C33.3038 42.9665 33.4243 42.9392 33.5011 42.8858C33.6017 42.8141 33.652 42.7138 33.652 42.5848C33.652 42.4714 33.6123 42.3828 33.5329 42.3163C33.4534 42.2512 33.3462 42.2186 33.2138 42.2186C33.1621 42.2173 33.0748 42.2225 32.9477 42.2303ZM32.9477 43.6584V44.4155H33.235C33.4058 44.4155 33.5368 44.3855 33.6282 44.3243C33.7182 44.263 33.7632 44.1731 33.7632 44.0559C33.7632 43.9282 33.7156 43.8291 33.6203 43.7614C33.5249 43.6936 33.3872 43.6597 33.2085 43.6597H32.9477V43.6584ZM27.1353 45.3133L26.1899 45.1347L28.2249 41.2896L30.2189 45.1347L29.2815 45.3133L28.9121 44.5406H27.502L27.1353 45.3133ZM27.8198 43.7666H28.5943L28.2024 42.9444L27.8198 43.7666ZM72.354 34.8215C74.2883 33.6436 75.4866 31.8454 75.0205 30.8213C74.5545 29.7971 72.5963 29.9235 70.6619 31.1027C68.7275 32.2819 67.5293 34.0788 67.9954 35.1042C68.4601 36.1271 70.4183 36.0007 72.354 34.8215ZM43.9409 28.5019C43.733 23.6586 41.4358 21.8983 38.4423 21.7393C32.4525 21.4214 24.241 29.0322 23.1593 35.2267C24.1417 34.5961 26.6428 33.0663 27.8317 32.4982C29.1756 31.8558 30.6465 31.2617 32.2261 30.7313C36.1491 29.4153 40.2098 28.6817 43.9409 28.5019Z" fill="#027063"/>
<path fill-rule="evenodd" clip-rule="evenodd" d="M12.043 0C17.3866 5.70585 25.1824 13.5278 25.6021 19.5763C19.374 22.0611 14.5586 30.2257 12.8678 36.5362C15.0074 23.9739 17.4687 10.3654 12.043 0Z" fill="#027063"/>
<path fill-rule="evenodd" clip-rule="evenodd" d="M11.0379 0.657959C17.8552 16.0412 9.70203 32.0799 11.5728 47.9882C8.56868 45.0304 -0.551059 37.3218 0.0262066 26.2854C0.54654 16.3461 7.22614 9.80373 11.0379 0.657959Z" fill="#027063"/>
<path fill-rule="evenodd" clip-rule="evenodd" d="M85.8837 23.884H87.0991C87.356 23.884 87.5599 23.8579 87.7042 23.8045C87.8498 23.7511 87.9611 23.6677 88.0365 23.5517C88.112 23.437 88.1491 23.3107 88.1491 23.1751C88.1491 22.9758 88.0763 22.8129 87.9293 22.6852C87.7823 22.5575 87.5506 22.4937 87.2342 22.4937H85.8824V23.884H85.8837ZM85.3184 26.232V22.0285H87.2117C87.593 22.0285 87.8816 22.0676 88.0802 22.1419C88.2775 22.2174 88.4364 22.3503 88.5555 22.5419C88.6734 22.7334 88.733 22.9445 88.733 23.1751C88.733 23.4735 88.635 23.7237 88.439 23.9283C88.2431 24.1328 87.9399 24.2631 87.5308 24.3192C87.6804 24.3895 87.7942 24.4586 87.871 24.529C88.0352 24.6762 88.1914 24.8638 88.3397 25.0879L89.0825 26.232H88.3715L87.8062 25.3564C87.642 25.1049 87.5043 24.9107 87.397 24.7778C87.2911 24.6436 87.1945 24.5498 87.1111 24.4977C87.0263 24.443 86.9416 24.4065 86.8542 24.3843C86.7893 24.3713 86.6847 24.3648 86.5391 24.3648H85.8837V26.2307H85.3184V26.232Z" fill="#027063"/>
<path fill-rule="evenodd" clip-rule="evenodd" d="M87.005 20.5614C89.0188 20.5614 90.6619 22.1784 90.6619 24.1603C90.6619 26.1435 89.0188 27.7605 87.005 27.7605C84.9912 27.7605 83.3481 26.1435 83.3481 24.1603C83.3481 22.1784 84.9912 20.5614 87.005 20.5614ZM87.005 20.1275C89.2611 20.1275 91.1015 21.9387 91.1015 24.1603C91.1015 26.3819 89.2611 28.1918 87.005 28.1918C84.7489 28.1918 82.9072 26.3806 82.9072 24.1603C82.9072 21.94 84.7476 20.1275 87.005 20.1275Z" fill="#027063"/>
</g>
<defs>
<clipPath id="clip0">
<rect width="91.102" height="48" fill="white"/>
</clipPath>
</defs>
</svg>
